<svg id="Layer_1" data-name="Layer 1" xmlns="http://www.w3.org/2000/svg" viewBox="0 0 118 118"><defs><style>.cls-1{fill:#e74c3c;}</style></defs><title>Untitled-2</title><path class="cls-1" d="M64.44,4.8h0a59,59,0,0,0-59,59h0a59,59,0,0,0,59,59h0a59,59,0,0,0,59-59h0A59,59,0,0,0,64.44,4.8Zm33,78a1.14,1.14,0,0,0,0,.15,9.85,9.85,0,0,1-2.29,5.41,13.91,13.91,0,0,1-5.36,4,15.5,15.5,0,0,1-9.79,1,11,11,0,0,1-5.88-3.27,8.18,8.18,0,0,1-2.22-5.27A8.85,8.85,0,0,1,72.9,80.2,12.82,12.82,0,0,1,78.14,75a15.88,15.88,0,0,1,6.68-2,14.43,14.43,0,0,1,4.95.44c.42.12.84.26,1.26.38V47.2c-1.2.1-2.38.18-3.56.3-1.48.15-3,.31-4.44.5-1.81.24-3.61.48-5.41.77q-4.76.77-9.45,1.85c-3.68.85-7.33,1.81-10.92,3a.3.3,0,0,0-.25.34q0,17.67,0,35.33a2.87,2.87,0,0,0,0,.3,8.51,8.51,0,0,1-.18,2.84,10.47,10.47,0,0,1-2.71,4.9,15.22,15.22,0,0,1-9.37,4.57c-.38,0-.76.08-1.14.12H42.13l-.19,0c-.77-.11-1.54-.17-2.3-.33a11.26,11.26,0,0,1-5.55-2.88,8.29,8.29,0,0,1-2.43-4.34c-.08-.39-.13-.78-.19-1.17V92.17a1.92,1.92,0,0,0,0-.19,9.15,9.15,0,0,1,1.06-3.53,12.85,12.85,0,0,1,5.19-5.18,15.93,15.93,0,0,1,6.54-2,14.37,14.37,0,0,1,6.35.82l.19.07c0-.12,0-.2,0-.29q0-23.7,0-47.39a.29.29,0,0,1,.21-.32C54,32.92,57,31.89,60,30.95a121.11,121.11,0,0,1,13.37-3.33c2.34-.44,4.68-.84,7-1.11,1.84-.21,3.67-.44,5.52-.57,2-.15,4.09-.21,6.14-.31l.23,0h3.5l1.63,0Z" transform="translate(-5.44 -4.8)"/></svg>